# xmcd CD database file
#
# Track frame offsets:
#	150
#	15864
#	32736
#	37359
#	54504
#	72392
#	85155
#	100067
#	117417
#	136395
#	155872
#	167197
#
# Disc length: 2548 seconds
#
# Revision: 0
# Processed by: cddbd v1.5.2PL0 Copyright (c) Steve Scherf et al.
# Submitted via: CDex 1.70beta2
#
DISCID=a309f20c
DTITLE=Zac Brown Band - The Foundation (Cracker Barrel)
DYEAR=2009
DGENRE=Country
TTITLE0=Whatever It Is
TTITLE1=Where The Boat Leaves From
TTITLE2=Violin Intro To Free
TTITLE3=Free
TTITLE4=Chicken Fried
TTITLE5=Mary
TTITLE6=Different Kind Of Fine
TTITLE7=Highway 20 Ride
TTITLE8=It's Not OK
TTITLE9=The Night They Drove Old Dixie Down (Live)
TTITLE10=I Lost It (Live)
TTITLE11=I Shall Be Released (Live)
EXTD=YEAR: 2009
EXTT0=
EXTT1=
EXTT2=
EXTT3=
EXTT4=
EXTT5=
EXTT6=
EXTT7=
EXTT8=
EXTT9=
EXTT10=
EXTT11=
PLAYORDER=
